<?xml version="1.0" encoding="utf-8"?>
<!-- Generator: Adobe Illustrator 16.0.4, SVG Export Plug-In . SVG Version: 6.00 Build 0)  -->
<!DOCTYPE svg PUBLIC "-//W3C//DTD SVG 1.1//EN" "http://www.w3.org/Graphics/SVG/1.1/DTD/svg11.dtd">
<svg version="1.1" id="Layer_1" xmlns="http://www.w3.org/2000/svg" xmlns:xlink="http://www.w3.org/1999/xlink" x="0px" y="0px"
	 width="300px" height="300px" viewBox="0 0 925.934 233.51" enable-background="new 0 0 925.934 233.51"
	 xml:space="preserve">
<g>
	<defs>
		<rect id="SVGID_1_" width="925.934" height="233.51"/>
	</defs>
	<clipPath id="SVGID_2_">
		<use xlink:href="#SVGID_1_"  overflow="visible"/>
	</clipPath>
	<path clip-path="url(#SVGID_2_)" d="M340.52,154.166h16.402l15.28,41.6l12.922-41.6h16.182l-18.207,54.65
		c-4.93,14.85-7.829,23.551-26.291,24.622c-5.718,0.328-9.778-0.468-18.133-2.541v-14.679c7.121,2.197,10.491,2.889,14.313,2.771
		c5.955,0,8.762-1.849,10.114-6.698L340.52,154.166z"/>
	<path clip-path="url(#SVGID_2_)" d="M42.073,197.117H21.16v-21.141h0.352H38.72c10.422,0,15.482,3.588,15.482,10.973
		C54.202,193.508,49.9,197.117,42.073,197.117 M21.16,143.395h0.352h18.941c8.028,0,12.83,3.191,12.83,8.541
		c0,4.327-2.293,9.477-13.178,9.477H21.16V143.395z M63.247,172.668c-3.568-2.026-6.2-2.911-12.257-4.124l-0.03-0.666
		c7.389-2.158,19.739-5.77,19.739-18.853c0-4.974-1.97-9.562-5.548-12.925c-4.701-4.585-11.892-6.721-22.646-6.721H0.333v82.622
		h45.411c16.793,0,28.076-8.866,28.076-22.07C73.819,182.666,70.166,176.695,63.247,172.668"/>
	<path clip-path="url(#SVGID_2_)" d="M94.16,171.361c4.276-13.982,12.406-18.605,23.384-18.258l-0.402,17.056
		c-1.383-0.116-1.565,0.05-2.489,0.05c-7.164,0-18.989,4.968-18.989,13.497v27.978H79.139v-57.194H94.16V171.361z"/>
	<path clip-path="url(#SVGID_2_)" d="M161.855,182.481c0-10.822-4.394-18.827-12.482-18.827c-8.086,0-12.478,8.005-12.478,18.827
		c0,12.704,4.392,19.054,12.478,19.054C157.461,201.535,161.855,195.186,161.855,182.481 M119.103,182.481
		c0-17.876,12.478-30.937,30.27-30.937c17.107,0,30.276,13.061,30.276,30.937c0,17.877-13.169,31.053-30.276,31.053
		C131.581,213.534,119.103,200.358,119.103,182.481"/>
	<path clip-path="url(#SVGID_2_)" d="M226.237,182.481c0-10.822-4.389-18.827-12.482-18.827c-8.086,0-12.474,8.005-12.474,18.827
		c0,12.704,4.388,19.054,12.474,19.054C221.848,201.535,226.237,195.186,226.237,182.481 M183.479,182.481
		c0-17.876,12.483-30.937,30.275-30.937c17.103,0,30.276,13.061,30.276,30.937c0,17.877-13.173,31.053-30.276,31.053
		C195.962,213.534,183.479,200.358,183.479,182.481"/>
</g>
<polygon points="250.061,128.38 266.583,128.38 266.583,174.826 287.725,153.801 309.679,153.801 288.487,173.261 311.302,211.684 
	293.625,211.684 277.277,183.31 266.813,192.623 266.813,211.684 250.061,211.684 "/>
<rect x="317.445" y="128.381" width="16.407" height="83.303"/>
<g>
	<defs>
		<rect id="SVGID_3_" width="925.934" height="233.51"/>
	</defs>
	<clipPath id="SVGID_4_">
		<use xlink:href="#SVGID_3_"  overflow="visible"/>
	</clipPath>
	<path clip-path="url(#SVGID_4_)" d="M424.087,163.389c4.62-6.934,10.05-10.521,18.371-10.521c6.12,0,10.748,1.621,14.207,5.086
		c4.052,4.051,5.086,7.281,5.086,18.024v35.705h-16.628v-32.467c0-11.558-2.319-15.6-9.133-15.6
		c-6.939,0-11.903,5.896-11.903,13.979v34.087h-16.638v-57.194h16.638V163.389z"/>
	<path clip-path="url(#SVGID_4_)" d="M579.043,128.951v82.618h-16.18v-67.825l-0.679-0.09c0,0-17.594,67.402-17.729,67.915H529.15
		c-0.125-0.513-17.492-68.604-17.492-68.604l-0.677,0.078v68.525h-16.065v-82.618h28.742c0.127,0.515,13.202,51.759,13.202,51.759
		s13.424-51.255,13.558-51.759H579.043z"/>
	<path clip-path="url(#SVGID_4_)" d="M589.451,154.49h16.636v38.823c0,5.661,3.704,9.359,9.482,9.359
		c6.12,0,11.788-5.657,11.788-11.784V154.49h16.407v57.193h-16.528v-8.314c-4.275,4.852-8.897,9.934-19.64,9.934
		c-10.749,0-18.146-6.815-18.146-16.642V154.49z"/>
	<path clip-path="url(#SVGID_4_)" d="M663.029,192.624c2.193,7.734,7.05,11.324,15.364,11.324c5.779,0,9.593-2.661,9.593-6.361
		c0-3.462-3.462-5.657-12.486-7.627c-16.751-3.694-23.566-9.471-23.566-20.223c0-10.396,8.551-16.868,22.304-16.868
		c10.159,0,22.064,1.271,25.876,15.251l-14.551,2.548c-0.472-5.894-4.161-8.552-11.79-8.552c-4.506,0-8.088,2.074-8.088,4.854
		c0,3.348,2.885,4.976,12.363,7.164c15.483,3.463,24.38,8.312,24.38,19.294c0,5.197-1.957,9.941-5.54,13.41
		c-4.509,4.5-11.211,6.466-21.037,6.466c-9.128,0-16.059-2.422-21.025-7.508c-2.085-2.195-3.119-3.817-4.968-8.096L663.029,192.624z
		"/>
	<path clip-path="url(#SVGID_4_)" d="M745.841,177.482c0.119-3.119,0.344-13.979-10.403-13.979
		c-11.439,0-10.975,10.86-10.859,13.979H745.841z M762.592,187.882h-38.014c0.46,9.819,4.163,14.446,11.897,14.446
		c5.203,0,9.484-3.008,13.177-9.015l11.326,6.472c-2.543,3.923-8.67,13.519-25.768,13.519c-23.227,0-28.307-18.843-28.307-30.618
		c0-18.032,10.972-29.817,27.842-29.817c16.292,0,27.846,12.02,27.846,29.125V187.882"/>
	<path clip-path="url(#SVGID_4_)" d="M770.204,154.49h16.64v38.823c0,5.661,3.698,9.359,9.47,9.359
		c6.128,0,11.787-5.657,11.787-11.784V154.49h16.411v57.193H807.99v-8.314c-4.272,4.852-8.896,9.934-19.649,9.934
		c-10.737,0-18.137-6.815-18.137-16.642V154.49z"/>
	<path clip-path="url(#SVGID_4_)" d="M851.171,163.732c2.314-3.235,7.629-10.629,20.221-10.629c12.83,0,15.258,7.167,16.755,11.671
		c5.431-9.132,12.131-11.671,18.948-11.671c11.785,0,18.839,7.167,18.839,19.409v39.171h-16.64V172.86
		c0-5.778-3.12-9.009-8.784-9.009c-6.933,0-11.903,6.124-11.903,14.562v33.27H871.97v-38.354c0-6.247-2.772-9.251-8.546-9.251
		c-7.397,0-12.138,5.435-12.138,14.21v33.396H834.65V154.49h16.521V163.732z"/>
	<path clip-path="url(#SVGID_4_)" d="M49.463,72.652V61.96c-1.916,1.413-4.236,2.32-5.951,2.724
		c-5.648,1.211-7.867,3.934-7.867,8.775c0,4.135,1.513,7.564,5.245,7.564S49.463,78.604,49.463,72.652 M150.827,56.211
		l17.953,32.882h-15.331L141.85,66.802l-4.942,6.455v15.836h-13.919V17.077h13.919v38.025h0.202l14.019-20.274h15.331
		L150.827,56.211z M86.579,48.748c0,2.622,1.412,4.841,6.052,6.354l8.371,2.823c8.775,2.926,12.003,7.363,12.003,15.533
		c0,11.397-8.472,17.046-20.172,17.046c-15.634,0-19.971-6.858-19.971-17.248v-1.916h12.507v1.815c0,4.741,2.521,7.867,7.262,7.867
		c4.236,0,7.06-2.118,7.06-6.455c0-3.53-2.32-5.145-5.043-6.152l-9.784-3.531c-7.665-2.723-11.599-7.463-11.599-15.129
		c0-8.976,5.649-16.339,19.971-16.339c12.608,0,18.559,5.648,18.559,15.431v2.22H99.288c0-5.446-1.614-8.169-6.153-8.169
		C89.604,42.898,86.579,44.915,86.579,48.748 M64.492,89.093H51.178c-0.908-1.715-1.312-3.833-1.715-5.648h-0.202
		c-3.227,5.648-7.161,7.061-13.818,7.061c-9.682,0-13.112-8.271-13.112-15.533c0-10.187,4.135-14.322,13.717-16.944l7.868-2.118
		c4.135-1.11,5.547-2.724,5.547-6.354c0-4.136-1.815-6.656-6.455-6.656c-4.236,0-6.455,2.823-6.455,7.06v1.513H24.046V50.16
		c0-12.507,8.573-16.743,19.063-16.743c16.541,0,19.668,6.858,19.668,16.642v28.545C62.777,83.646,63.079,85.966,64.492,89.093
		 M185.812,105.874V0H0v105.874h79.153v28.74l24.765-28.74H185.812z"/>
</g>
</svg>
